<svg role="img" viewBox="0 0 1181.000000 1181.000000" xmlns="http://www.w3.org/2000/svg">
<title>Microsoft MVP</title>
<g transform="translate(0.000000,1181.000000) scale(0.100000,-0.100000)">
<path d="M800 11795 c-302 -60 -563 -262 -700 -540 -27 -55 -60 -136 -72 -180 l-23 -80 -3 -2539 -2 -2539 917 911 c505 501 1834 1827 2953 2946 l2035 2036 -2520 -1 c-2029 -1 -2533 -3 -2585 -14z"></path>
<path d="M6828 10893 c501 -505 1827 -1834 2946 -2953 l2036 -2035 -2 2545 -3 2545 -23 80 c-34 118 -112 269 -189 365 -125 156 -322 286 -518 342 l-80 23 -2539 3 -2539 2 911 -917z"></path>
<path d="M3362 8447 c-1392 -1392 -2532 -2537 -2532 -2542 0 -13 5062 -5075 5075 -5075 13 0 5075 5062 5075 5075 0 13 -5062 5075 -5075 5075 -6 0 -1150 -1140 -2543 -2533z m108 -913 c0 -3 102 -448 226 -987 214 -932 274 -1219 274 -1308 0 -21 4 -39 9 -39 12 0 17 26 36 195 23 198 16 168 236 1175 110 503 203 927 206 943 l6 27 393 0 394 0 0 -1530 0 -1530 -251 0 -251 0 6 1148 c4 631 9 1186 12 1235 3 48 2 87 -3 87 -4 0 -25 -98 -46 -218 -21 -119 -141 -672 -267 -1227 -127 -556 -230 -1014 -230 -1018 0 -4 -121 -7 -270 -7 -148 0 -270 2 -270 3 0 2 -104 431 -230 953 -208 855 -235 977 -274 1227 -40 261 -48 298 -61 285 -3 -3 -1 -124 5 -269 5 -145 10 -699 10 -1231 l0 -968 -240 0 -240 0 0 1530 0 1530 410 0 c226 0 410 -3 410 -6z m2590 1 c0 -3 99 -476 220 -1052 163 -776 225 -1088 237 -1200 9 -84 20 -153 24 -153 9 0 9 3 38 216 11 83 115 598 231 1145 116 547 213 1006 216 1022 l6 27 294 0 c277 0 295 -1 290 -17 -3 -10 -174 -682 -381 -1493 -207 -811 -381 -1492 -386 -1512 l-10 -38 -314 0 c-173 0 -315 2 -315 4 0 2 -169 685 -375 1516 -206 831 -375 1518 -375 1526 0 12 48 14 300 14 165 0 300 -2 300 -5z m2730 -5 c149 -13 253 -40 369 -97 82 -39 108 -59 191 -142 75 -75 105 -114 137 -176 85 -166 117 -319 116 -555 0 -331 -93 -572 -298 -775 -96 -96 -156 -136 -282 -190 -122 -52 -203 -66 -430 -72 l-203 -6 0 -518 0 -519 -290 0 -290 0 0 1530 0 1530 433 0 c237 0 484 -5 547 -10z"></path>
<path d="M8390 6525 l0 -505 103 0 c265 1 377 53 449 206 74 159 76 434 3 587 -49 106 -154 184 -274 207 -29 5 -105 10 -167 10 l-114 0 0 -505z"></path>
<path d="M2 3355 l3 -2540 23 -80 c56 -196 186 -393 342 -518 96 -77 247 -155 365 -189 l80 -23 2534 -3 2534 -2 -901 907 c-495 500 -1819 1826 -2941 2948 l-2041 2040 2 -2540z"></path>
<path d="M8860 2943 l-2945 -2942 2540 2 2540 2 80 23 c196 56 393 186 518 342 77 96 155 247 189 365 l23 80 3 2095 c1 1152 1 2293 0 2535 l-3 440 -2945 -2942z"></path>
</g>
</svg>