<svg role="img" viewBox="0 0 288 288">
<title>Sessionize</title>
<g transform="translate(0.000000,288.000000) scale(0.100000,-0.100000)">
<path d="M135 2861 c-22 -10 -54 -34 -72 -52 -67 -71 -63 22 -63 -1369 0 -1391 -4 -1298 63 -1369 70 -73 42 -71 715 -71 l602 0 0 40 c0 108 -52 232 -127 301 -92 85 -229 125 -469 139 -119 6 -160 13 -190 28 -63 32 -96 81 -108 161 -6 43 12 87 470 1118 263 590 480 1073 483 1073 3 0 22 -42 41 -92 47 -127 157 -344 228 -453 156 -239 367 -450 607 -608 100 -65 373 -202 478 -238 37 -13 67 -27 67 -30 0 -3 -348 -160 -772 -349 -425 -188 -777 -346 -782 -350 -4 -5 11 -18 35 -30 235 -119 367 -331 394 -633 l7 -77 482 0 c444 0 484 2 521 19 51 23 111 89 125 138 8 27 10 249 8 773 -4 660 -6 743 -22 809 -69 289 -197 522 -396 721 -199 199 -432 327 -721 396 -67 16 -148 18 -819 21 -712 3 -747 2 -785 -16z m2069 -483 c99 -51 198 -181 200 -264 1 -57 -21 -79 -77 -78 -137 3 -328 220 -288 328 19 50 84 55 165 14z"></path>
</g>
</svg>